# xmcd
#
# Track frame offsets:
#	150
#	11575
#	22894
#	32753
#	43057
#	54412
#	65182
#	77962
#	91325
#	102942
#	112406
#	123878
#	133501
#	146172
#	158740
#	170524
#	180860
#	194145
#	205210
#	216233
#
# Disc length: 3040 seconds
#
# Revision: 1
# Processed by: cddbd v1.5.2PL0 Copyright (c) Steve Scherf et al.
# Submitted via: audiograbber 1.83.01
#
DISCID=230bde14
DTITLE=Various Artist - No.1 Country Hits-CD1
DYEAR=1900
DGENRE=Country
TTITLE0=Marty Robbins - The Story Of My Life
TTITLE1=Don Gibson - Oh Lonesome Me
TTITLE2=Johnny Cash and The Tennessie Two - Ballade Of A Teenage Queen
TTITLE3=Faron Young - Allone With You
TTITLE4=Sonny James - Young Love
TTITLE5=Ferlin Husky - Gone
TTITLE6=Jim Reeves - Four Walls
TTITLE7=Bobby Helms - My Special Angel
TTITLE8=Red Sovine and Webb Pierce - Why Baby Why
TTITLE9=The Louvin Brothers - I Don't Believe You've Met My Baby
TTITLE10=Carl Smith - Loose Talk
TTITLE11=Webb Pierce - In The Jailhouse Now
TTITLE12=Porter Wagoner - A Satisfied Mind
TTITLE13=Eddy Arnold - The Cattle Call
TTITLE14=Tennessie Ernie Ford - Sixteen Tons
TTITLE15=Hank Thompson - Wake Up,Irene
TTITLE16=Kitty Wells and Red Foley - One By One
TTITLE17=Hank Williams - I'll NeverGet Out Of This World Alive
TTITLE18=The Carlisles - No Help Wanted
TTITLE19=Goldie Hill - I Let The Stars Get In My Eyes
EXTD=
EXTT0=
EXTT1=
EXTT2=
EXTT3=
EXTT4=
EXTT5=
EXTT6=
EXTT7=
EXTT8=
EXTT9=
EXTT10=
EXTT11=
EXTT12=
EXTT13=
EXTT14=
EXTT15=
EXTT16=
EXTT17=
EXTT18=
EXTT19=
PLAYORDER=
